<svg width="91" height="33" viewBox="0 0 91 33" fill="none" xmlns="http://www.w3.org/2000/svg">
<path d="M69.412 27.016C69.196 27.34 68.932 27.646 68.62 27.934C68.32 28.222 67.966 28.474 67.558 28.69C67.162 28.906 66.718 29.074 66.226 29.194C65.746 29.326 65.218 29.392 64.642 29.392C63.682 29.392 62.794 29.224 61.978 28.888C61.162 28.552 60.46 28.09 59.872 27.502C59.284 26.902 58.822 26.194 58.486 25.378C58.162 24.562 58 23.668 58 22.696C58 21.724 58.168 20.83 58.504 20.014C58.84 19.198 59.302 18.496 59.89 17.908C60.49 17.308 61.192 16.84 61.996 16.504C62.812 16.168 63.694 16 64.642 16C65.11 16 65.566 16.048 66.01 16.144C66.466 16.24 66.892 16.378 67.288 16.558C67.684 16.726 68.044 16.936 68.368 17.188C68.692 17.428 68.962 17.704 69.178 18.016L68.098 18.808C67.966 18.604 67.786 18.4 67.558 18.196C67.342 17.992 67.084 17.812 66.784 17.656C66.484 17.5 66.154 17.374 65.794 17.278C65.446 17.182 65.068 17.134 64.66 17.134C63.832 17.134 63.088 17.284 62.428 17.584C61.78 17.884 61.228 18.292 60.772 18.808C60.316 19.312 59.968 19.9 59.728 20.572C59.488 21.244 59.368 21.952 59.368 22.696C59.368 23.44 59.488 24.148 59.728 24.82C59.98 25.492 60.334 26.086 60.79 26.602C61.246 27.106 61.798 27.508 62.446 27.808C63.106 28.108 63.844 28.258 64.66 28.258C65.392 28.258 66.088 28.108 66.748 27.808C67.408 27.508 67.96 27.028 68.404 26.368L69.412 27.016Z" fill="black"/>
<path d="M76.5607 23.632C76.5607 22.9 76.3687 22.354 75.9847 21.994C75.6007 21.634 75.0427 21.454 74.3107 21.454C73.8067 21.454 73.3387 21.544 72.9067 21.724C72.4747 21.904 72.1087 22.144 71.8087 22.444L71.1247 21.634C71.4727 21.286 71.9287 20.998 72.4927 20.77C73.0687 20.542 73.7167 20.428 74.4367 20.428C74.8927 20.428 75.3187 20.494 75.7147 20.626C76.1107 20.746 76.4587 20.932 76.7587 21.184C77.0587 21.436 77.2927 21.754 77.4607 22.138C77.6287 22.522 77.7127 22.972 77.7127 23.488V27.178C77.7127 27.502 77.7247 27.838 77.7487 28.186C77.7727 28.534 77.8087 28.828 77.8567 29.068H76.7587C76.7227 28.864 76.6927 28.642 76.6687 28.402C76.6447 28.162 76.6327 27.928 76.6327 27.7H76.5967C76.2127 28.264 75.7747 28.672 75.2827 28.924C74.8027 29.164 74.2207 29.284 73.5367 29.284C73.2127 29.284 72.8767 29.236 72.5287 29.14C72.1927 29.056 71.8807 28.912 71.5927 28.708C71.3167 28.504 71.0827 28.24 70.8907 27.916C70.7107 27.592 70.6207 27.196 70.6207 26.728C70.6207 26.08 70.7827 25.57 71.1067 25.198C71.4427 24.814 71.8867 24.532 72.4387 24.352C72.9907 24.16 73.6207 24.04 74.3287 23.992C75.0487 23.932 75.7927 23.902 76.5607 23.902V23.632ZM76.2007 24.856C75.6967 24.856 75.1867 24.88 74.6707 24.928C74.1667 24.964 73.7047 25.048 73.2847 25.18C72.8767 25.3 72.5407 25.48 72.2767 25.72C72.0127 25.96 71.8807 26.278 71.8807 26.674C71.8807 26.974 71.9347 27.226 72.0427 27.43C72.1627 27.634 72.3187 27.802 72.5107 27.934C72.7027 28.054 72.9127 28.144 73.1407 28.204C73.3807 28.252 73.6207 28.276 73.8607 28.276C74.2927 28.276 74.6767 28.204 75.0127 28.06C75.3487 27.904 75.6307 27.7 75.8587 27.448C76.0867 27.184 76.2607 26.884 76.3807 26.548C76.5007 26.212 76.5607 25.858 76.5607 25.486V24.856H76.2007Z" fill="black"/>
<path d="M80.8659 22.498C80.8659 22.27 80.8599 21.976 80.8479 21.616C80.8359 21.256 80.8179 20.932 80.7939 20.644H81.9639C81.9879 20.872 82.0059 21.124 82.0179 21.4C82.0299 21.676 82.0359 21.904 82.0359 22.084H82.0719C82.3119 21.592 82.6719 21.196 83.1519 20.896C83.6319 20.584 84.1719 20.428 84.7719 20.428C84.9279 20.428 85.0659 20.434 85.1859 20.446C85.3179 20.458 85.4499 20.482 85.5819 20.518L85.4199 21.67C85.3479 21.646 85.2279 21.622 85.0599 21.598C84.8919 21.574 84.7239 21.562 84.5559 21.562C84.2319 21.562 83.9199 21.622 83.6199 21.742C83.3199 21.862 83.0559 22.054 82.8279 22.318C82.6119 22.57 82.4319 22.9 82.2879 23.308C82.1559 23.704 82.0899 24.184 82.0899 24.748V29.068H80.8659V22.498Z" fill="black"/>
<path d="M90.9393 21.67H88.5633V26.584C88.5633 26.896 88.5933 27.154 88.6533 27.358C88.7133 27.562 88.7973 27.724 88.9053 27.844C89.0253 27.952 89.1633 28.03 89.3193 28.078C89.4753 28.114 89.6433 28.132 89.8233 28.132C89.9913 28.132 90.1653 28.108 90.3453 28.06C90.5373 28.012 90.7173 27.946 90.8853 27.862L90.9393 28.924C90.7233 29.008 90.4953 29.068 90.2553 29.104C90.0273 29.152 89.7753 29.176 89.4993 29.176C89.2713 29.176 89.0313 29.146 88.7793 29.086C88.5273 29.026 88.2933 28.912 88.0773 28.744C87.8613 28.576 87.6813 28.348 87.5373 28.06C87.4053 27.772 87.3393 27.394 87.3393 26.926V21.67H85.5933V20.644H87.3393V18.268H88.5633V20.644H90.9393V21.67Z" fill="black"/>
<circle cx="35.5" cy="7.5" r="7.5" fill="#4FAAFF"/>
<path d="M35.52 4.752L33.84 6.132L33 5.136L35.652 3H36.96V11.496H35.52V4.752Z" fill="white"/>
<path d="M9 31C9.55228 31 10 30.5523 10 30C10 29.4477 9.55228 29 9 29C8.44772 29 8 29.4477 8 30C8 30.5523 8.44772 31 9 31Z" stroke="black" stroke-linecap="round" stroke-linejoin="round"/>
<path d="M20 31C20.5523 31 21 30.5523 21 30C21 29.4477 20.5523 29 20 29C19.4477 29 19 29.4477 19 30C19 30.5523 19.4477 31 20 31Z" stroke="black" stroke-linecap="round" stroke-linejoin="round"/>
<path d="M1 10H5L7.68 23.39C7.77144 23.8504 8.02191 24.264 8.38755 24.5583C8.75318 24.8526 9.2107 25.009 9.68 25H19.4C19.8693 25.009 20.3268 24.8526 20.6925 24.5583C21.0581 24.264 21.3086 23.8504 21.4 23.39L23 15H6" stroke="black" stroke-linecap="round" stroke-linejoin="round"/>
</svg>
