<svg width="191" height="29" viewBox="0 0 191 29" fill="none" xmlns="http://www.w3.org/2000/svg">
<g clip-path="url(#clip0_16_204)">
<path d="M125.257 11.167C123.892 11.167 123.217 12.2302 122.907 12.9161C122.734 13.299 122.686 13.6018 122.546 13.6018C122.348 13.6018 122.489 13.3387 122.328 12.7551C122.115 11.9872 121.473 11.167 120.109 11.167C118.676 11.167 118.062 12.3663 117.771 13.0254C117.572 13.4759 117.571 13.6018 117.418 13.6018C117.196 13.6018 117.38 13.2439 117.48 12.8232C117.677 11.9948 117.527 11.3618 117.527 11.3618H115.254V19.8232H118.357C118.357 19.8232 118.357 16.287 118.357 15.6133C118.357 14.7829 118.707 13.7293 119.309 13.7293C120.004 13.7293 120.143 14.2575 120.143 15.2359C120.143 16.1229 120.143 19.8251 120.143 19.8251H123.257C123.257 19.8251 123.257 16.2674 123.257 15.6133C123.257 14.8742 123.562 13.7293 124.214 13.7293C124.918 13.7293 125.043 14.4715 125.043 15.2359C125.043 16.0003 125.043 19.8232 125.043 19.8232H128.102C128.102 19.8232 128.102 16.4706 128.102 14.8474C128.102 12.6392 127.316 11.167 125.257 11.167Z" fill="#100F0D"/>
<path d="M177.911 11.167C176.547 11.167 175.871 12.2302 175.562 12.9161C175.389 13.299 175.34 13.6018 175.2 13.6018C175.002 13.6018 175.134 13.2675 174.982 12.7551C174.755 11.9912 174.189 11.167 172.764 11.167C171.33 11.167 170.716 12.3663 170.425 13.0254C170.226 13.4759 170.226 13.6018 170.073 13.6018C169.851 13.6018 170.034 13.2439 170.134 12.8232C170.331 11.9948 170.181 11.3618 170.181 11.3618H167.909V19.8232H171.011C171.011 19.8232 171.011 16.287 171.011 15.6133C171.011 14.7829 171.362 13.7293 171.963 13.7293C172.658 13.7293 172.797 14.2575 172.797 15.2359C172.797 16.1229 172.797 19.8251 172.797 19.8251H175.911C175.911 19.8251 175.911 16.2674 175.911 15.6133C175.911 14.8742 176.216 13.7293 176.868 13.7293C177.573 13.7293 177.697 14.4715 177.697 15.2359C177.697 16.0003 177.697 19.8232 177.697 19.8232H180.756C180.756 19.8232 180.756 16.4706 180.756 14.8474C180.756 12.6392 179.97 11.167 177.911 11.167Z" fill="#100F0D"/>
<path d="M132.643 17.8457C131.902 18.0153 131.517 17.7891 131.517 17.3023C131.517 16.6354 132.214 16.3683 133.208 16.3683C133.646 16.3683 134.059 16.4059 134.059 16.4059C134.059 16.6913 133.433 17.6654 132.643 17.8457ZM133.399 11.1689C131.022 11.1689 129.317 12.034 129.317 12.034V14.5766C129.317 14.5766 131.2 13.5047 132.728 13.5047C133.947 13.5047 134.097 14.1557 134.041 14.6962C134.041 14.6962 133.69 14.604 132.617 14.604C130.088 14.604 128.812 15.7417 128.812 17.5662C128.812 19.2967 130.246 20.0201 131.455 20.0201C133.218 20.0201 133.994 18.8467 134.232 18.29C134.397 17.9038 134.427 17.6435 134.576 17.6435C134.745 17.6435 134.688 17.8302 134.68 18.2146C134.665 18.8877 134.697 19.3966 134.805 19.8252H137.143V15.661C137.143 13.0611 136.214 11.1689 133.399 11.1689Z" fill="#100F0D"/>
<path d="M142.253 19.8251H145.356V8.80029H142.253V19.8251Z" fill="#100F0D"/>
<path d="M148.77 15.5944C148.77 14.8336 149.484 14.1414 150.794 14.1414C152.222 14.1414 153.371 14.8222 153.629 14.9768V12.034C153.629 12.034 152.721 11.1689 150.491 11.1689C148.14 11.1689 146.182 12.5311 146.182 15.4628C146.182 18.3944 147.959 20.0201 150.485 20.0201C152.458 20.0201 153.634 18.9468 153.634 18.9468V16.1516C153.262 16.3578 152.225 17.0701 150.809 17.0701C149.309 17.0701 148.77 16.3872 148.77 15.5944Z" fill="#100F0D"/>
<path d="M159.913 11.1689C158.117 11.1689 157.434 12.8539 157.296 13.1466C157.158 13.4391 157.09 13.6074 156.977 13.6038C156.781 13.5974 156.918 13.2446 156.994 13.0161C157.138 12.5845 157.444 11.4521 157.444 10.0603C157.444 9.11624 157.315 8.80029 157.315 8.80029H154.637V19.8252H157.74C157.74 19.8252 157.74 16.301 157.74 15.6154C157.74 14.9295 158.016 13.7312 158.798 13.7312C159.445 13.7312 159.648 14.2061 159.648 15.1624C159.648 16.1186 159.648 19.8252 159.648 19.8252H162.75C162.75 19.8252 162.75 17.2464 162.75 15.3464C162.75 13.1744 162.386 11.1689 159.913 11.1689Z" fill="#100F0D"/>
<path d="M163.758 11.3735V19.8253H166.86V11.3735C166.86 11.3735 166.339 11.6755 165.312 11.6755C164.286 11.6755 163.758 11.3735 163.758 11.3735Z" fill="#100F0D"/>
<path d="M165.3 8.71484C164.251 8.71484 163.401 9.26426 163.401 9.94202C163.401 10.6197 164.251 11.1691 165.3 11.1691C166.349 11.1691 167.199 10.6197 167.199 9.94202C167.199 9.26426 166.349 8.71484 165.3 8.71484Z" fill="#100F0D"/>
<path d="M138.147 11.3735V19.8253H141.249V11.3735C141.249 11.3735 140.728 11.6755 139.702 11.6755C138.675 11.6755 138.147 11.3735 138.147 11.3735Z" fill="#100F0D"/>
<path d="M139.689 8.71484C138.64 8.71484 137.79 9.26426 137.79 9.94202C137.79 10.6197 138.64 11.1691 139.689 11.1691C140.738 11.1691 141.588 10.6197 141.588 9.94202C141.588 9.26426 140.738 8.71484 139.689 8.71484Z" fill="#100F0D"/>
<path d="M186.068 18.0068C185.356 18.0068 184.833 17.1134 184.833 15.8687C184.833 14.6599 185.371 13.7311 186.043 13.7311C186.907 13.7311 187.275 14.5149 187.275 15.8687C187.275 17.277 186.935 18.0068 186.068 18.0068ZM186.919 11.167C185.325 11.167 184.594 12.351 184.276 13.0254C184.066 13.4711 184.077 13.6018 183.924 13.6018C183.702 13.6018 183.886 13.2439 183.986 12.8232C184.182 11.9948 184.033 11.3618 184.033 11.3618H181.76V22.1601H184.862C184.862 22.1601 184.862 20.3931 184.862 18.7365C185.229 19.3531 185.909 20.0119 186.957 20.0119C189.201 20.0119 190.33 18.1327 190.33 15.5937C190.33 12.7159 188.978 11.167 186.919 11.167Z" fill="#100F0D"/>
<path d="M104.295 13.723C104.504 13.6984 104.703 13.6972 104.887 13.723C104.993 13.4817 105.012 13.0655 104.916 12.6125C104.774 11.939 104.582 11.5314 104.184 11.5948C103.787 11.6583 103.772 12.1462 103.914 12.8197C103.994 13.1985 104.136 13.5223 104.295 13.723Z" fill="#231F20"/>
<path d="M100.883 14.2561C101.167 14.3797 101.342 14.4616 101.41 14.39C101.454 14.3454 101.441 14.2602 101.373 14.1504C101.233 13.9235 100.944 13.6935 100.638 13.5642C100.012 13.2973 99.2644 13.3861 98.6881 13.7961C98.4979 13.9341 98.3175 14.1253 98.3433 14.2414C98.3517 14.279 98.3802 14.3073 98.4469 14.3165C98.6038 14.3343 99.152 14.0598 99.7834 14.0216C100.229 13.9946 100.598 14.1326 100.883 14.2561Z" fill="#231F20"/>
<path d="M100.311 14.5789C99.9403 14.6368 99.736 14.7578 99.6049 14.8702C99.493 14.967 99.4238 15.0741 99.4244 15.1494C99.4246 15.1852 99.4404 15.2059 99.4527 15.2163C99.4697 15.2309 99.4896 15.2391 99.5136 15.2391C99.5973 15.2391 99.7847 15.1646 99.7847 15.1646C100.3 14.982 100.64 15.0042 100.977 15.0422C101.163 15.0628 101.251 15.0743 101.292 15.0111C101.304 14.9929 101.319 14.9537 101.282 14.8938C101.195 14.7545 100.821 14.519 100.311 14.5789" fill="#231F20"/>
<path d="M103.143 15.7653C103.394 15.8877 103.671 15.8396 103.761 15.658C103.851 15.4765 103.721 15.2301 103.469 15.1077C103.218 14.9855 102.941 15.0334 102.851 15.215C102.76 15.3966 102.891 15.6429 103.143 15.7653Z" fill="#231F20"/>
<path d="M104.76 14.3667C104.555 14.3633 104.386 14.5854 104.381 14.8628C104.376 15.1403 104.538 15.3678 104.742 15.3713C104.947 15.3748 105.116 15.1526 105.121 14.8753C105.126 14.5978 104.964 14.3701 104.76 14.3667Z" fill="#231F20"/>
<path d="M91.0366 19.3686C90.9858 19.3055 90.9023 19.3247 90.8214 19.3434C90.7649 19.3565 90.701 19.3711 90.6308 19.37C90.4806 19.367 90.3533 19.3036 90.2818 19.1948C90.1888 19.0533 90.1942 18.8423 90.2969 18.6009C90.3108 18.5681 90.3271 18.532 90.3449 18.4926C90.5087 18.1286 90.7829 17.5193 90.475 16.9388C90.2433 16.5019 89.8653 16.2298 89.4109 16.1727C88.9746 16.1179 88.5255 16.2781 88.239 16.591C87.787 17.0847 87.7164 17.7566 87.8038 17.994C87.8358 18.0809 87.8859 18.1049 87.9223 18.1099C87.9992 18.12 88.1129 18.0647 88.1842 17.8749C88.1893 17.8613 88.196 17.8401 88.2045 17.8133C88.2363 17.713 88.2954 17.5262 88.3922 17.3764C88.5089 17.1959 88.6907 17.0716 88.9041 17.0263C89.1215 16.9802 89.3437 17.0213 89.5297 17.1419C89.8464 17.347 89.9683 17.7311 89.8331 18.0976C89.7632 18.2872 89.6497 18.6496 89.6748 18.9475C89.7254 19.5502 90.0998 19.7924 90.4362 19.8181C90.7634 19.8302 90.992 19.6485 91.0498 19.5156C91.0839 19.437 91.0551 19.3892 91.0366 19.3686" fill="#231F20"/>
<path d="M94.1462 8.29761C95.2131 7.07701 96.5264 6.01583 97.7029 5.41997C97.7436 5.39928 97.7867 5.4431 97.7647 5.48259C97.6712 5.65009 97.4914 6.00879 97.4344 6.28084C97.4255 6.32324 97.4721 6.35512 97.5082 6.33075C98.2401 5.83678 99.5134 5.30746 100.63 5.23942C100.678 5.23647 100.701 5.29741 100.663 5.3264C100.493 5.45544 100.308 5.63392 100.172 5.81448C100.149 5.8452 100.171 5.88945 100.209 5.88968C100.993 5.89522 102.099 6.16694 102.819 6.5671C102.868 6.59412 102.833 6.68759 102.779 6.67523C101.689 6.4279 99.9043 6.24018 98.0505 6.68784C96.3956 7.08754 95.1325 7.70454 94.2111 8.36809C94.1645 8.40171 94.1086 8.34082 94.1462 8.29762L94.1462 8.29761ZM99.4596 20.124C99.4597 20.1242 99.4599 20.1246 99.46 20.1246C99.4602 20.125 99.4603 20.1256 99.4606 20.1259C99.4603 20.1253 99.46 20.1246 99.4596 20.124ZM103.859 20.6382C103.891 20.625 103.913 20.5893 103.909 20.5538C103.904 20.5102 103.865 20.4784 103.821 20.4829C103.821 20.4829 101.544 20.8165 99.3935 20.037C99.6278 19.2831 100.251 19.5553 101.192 19.6306C102.889 19.7308 104.41 19.4853 105.535 19.1657C106.509 18.8891 107.788 18.3433 108.782 17.5667C109.117 18.2958 109.235 19.0979 109.235 19.0979C109.235 19.0979 109.495 19.0521 109.711 19.1841C109.916 19.309 110.067 19.5684 109.964 20.2394C109.755 21.4929 109.217 22.5102 108.313 23.4462C107.762 24.0329 107.094 24.543 106.329 24.914C105.923 25.1252 105.49 25.3079 105.034 25.4555C101.624 26.5581 98.1343 25.346 97.0093 22.7431C96.9196 22.5474 96.8437 22.3426 96.7838 22.1283C96.3044 20.413 96.7114 18.3552 97.9836 17.0598C97.9837 17.0597 97.9835 17.0591 97.9836 17.0591C98.062 16.9767 98.142 16.8795 98.142 16.7573C98.142 16.655 98.0764 16.5471 98.0195 16.4707C97.5744 15.8315 96.0327 14.7422 96.3421 12.6343C96.5643 11.12 97.9019 10.0535 99.149 10.1166C99.2544 10.1221 99.36 10.1284 99.4651 10.1346C100.006 10.1663 100.477 10.235 100.922 10.2533C101.667 10.2852 102.336 10.178 103.129 9.5238C103.397 9.30304 103.611 9.11174 103.974 9.05086C104.012 9.04437 104.107 9.01066 104.297 9.01955C104.49 9.02971 104.675 9.0824 104.84 9.19157C105.476 9.61045 105.566 10.625 105.599 11.3672C105.618 11.7908 105.67 12.8158 105.687 13.11C105.728 13.7828 105.907 13.8777 106.268 13.9955C106.471 14.0618 106.66 14.1112 106.938 14.1884C107.779 14.4224 108.278 14.6598 108.593 14.9646C108.78 15.1551 108.868 15.3576 108.895 15.5507C108.994 16.2675 108.333 17.153 106.582 17.9576C104.668 18.8369 102.347 19.0596 100.743 18.8828C100.62 18.8693 100.182 18.8202 100.181 18.8199C98.8976 18.6488 98.1657 20.2906 98.9358 21.4154C99.4321 22.1403 100.784 22.6122 102.136 22.6124C105.237 22.6127 107.621 21.3015 108.508 20.1692C108.534 20.1354 108.537 20.1317 108.579 20.0691C108.622 20.004 108.586 19.9681 108.532 20.0049C107.807 20.4957 104.59 22.4441 101.148 21.8579C101.148 21.8579 100.73 21.7898 100.348 21.6428C100.045 21.526 99.41 21.2367 99.3329 20.5918C102.11 21.4422 103.859 20.6382 103.859 20.6382V20.6382ZM88.6037 14.1028C87.6378 14.2888 86.7865 14.8308 86.2659 15.5795C85.9547 15.3226 85.375 14.8251 85.2727 14.6313C84.4415 13.0688 86.1797 10.0307 87.394 8.31494C90.3949 4.07485 95.0949 0.86543 97.2707 1.44777C97.6245 1.54689 98.7959 2.89167 98.7959 2.89167C98.7959 2.89167 96.621 4.08651 94.6041 5.75198C91.8864 7.82386 89.8336 10.8352 88.6037 14.1028ZM90.2269 21.2732C90.0807 21.2979 89.9316 21.3078 89.7812 21.3041C88.3278 21.2656 86.7579 19.97 86.6019 18.4337C86.4295 16.7355 87.3058 15.4286 88.8574 15.1187C89.0429 15.0817 89.2671 15.0603 89.5088 15.0728C90.3782 15.12 91.6593 15.7809 91.952 17.6561C92.2113 19.3169 91.7995 21.0076 90.2269 21.2732V21.2732ZM109.915 18.2662C109.902 18.2226 109.821 17.9291 109.71 17.5754C109.598 17.2215 109.483 16.9726 109.483 16.9726C109.93 16.3099 109.938 15.7174 109.879 15.3817C109.815 14.9657 109.64 14.6112 109.288 14.2448C108.935 13.8783 108.214 13.503 107.2 13.2212C107.085 13.189 106.702 13.0852 106.669 13.0751C106.666 13.0534 106.641 11.834 106.618 11.3105C106.601 10.9321 106.568 10.3413 106.383 9.75942C106.162 8.9718 105.778 8.28259 105.298 7.84165C106.622 6.48266 107.449 4.9855 107.447 3.70113C107.443 1.23117 104.38 0.483864 100.604 2.03173C100.6 2.03334 99.8099 2.36513 99.8042 2.3679C99.8006 2.36455 98.358 0.963048 98.3363 0.944334C94.0317 -2.77314 80.5732 12.0385 84.8761 15.6359L85.8165 16.4247C85.5726 17.0503 85.4767 17.7671 85.555 18.538C85.6555 19.528 86.1713 20.4771 87.0073 21.2102C87.8009 21.9065 88.8443 22.3471 89.8569 22.3463C91.5314 26.1669 95.3573 28.5107 99.8432 28.6426C104.655 28.7842 108.695 26.5485 110.387 22.5326C110.498 22.2508 110.968 20.9808 110.968 19.8598C110.968 18.7331 110.324 18.2662 109.915 18.2662Z" fill="#231F20"/>
</g>
<path d="M0 10.672H2.8C3.304 10.672 3.76133 10.728 4.172 10.84C4.58267 10.9427 4.93267 11.106 5.222 11.33C5.52067 11.5447 5.74933 11.82 5.908 12.156C6.06667 12.4827 6.146 12.87 6.146 13.318C6.146 13.766 6.062 14.158 5.894 14.494C5.73533 14.8207 5.50667 15.096 5.208 15.32C4.91867 15.5347 4.564 15.698 4.144 15.81C3.73333 15.922 3.276 15.978 2.772 15.978H1.008V20.584H0V10.672ZM1.008 15.124H2.716C3.50933 15.124 4.11133 14.97 4.522 14.662C4.93267 14.354 5.138 13.906 5.138 13.318C5.138 12.702 4.92333 12.254 4.494 11.974C4.074 11.6847 3.48133 11.54 2.716 11.54H1.008V15.124Z" fill="black"/>
<path d="M13.5634 17.308C13.5634 17.8027 13.4747 18.26 13.2974 18.68C13.1294 19.1 12.8914 19.464 12.5834 19.772C12.2754 20.08 11.9067 20.3227 11.4774 20.5C11.048 20.668 10.5767 20.752 10.0634 20.752C9.55938 20.752 9.09271 20.668 8.66337 20.5C8.23404 20.3227 7.86538 20.08 7.55737 19.772C7.24937 19.464 7.00671 19.1 6.82937 18.68C6.66137 18.26 6.57737 17.8027 6.57737 17.308C6.57737 16.8133 6.66137 16.356 6.82937 15.936C7.00671 15.516 7.24937 15.152 7.55737 14.844C7.86538 14.536 8.23404 14.298 8.66337 14.13C9.09271 13.9527 9.55938 13.864 10.0634 13.864C10.5767 13.864 11.048 13.9527 11.4774 14.13C11.9067 14.298 12.2754 14.536 12.5834 14.844C12.8914 15.152 13.1294 15.516 13.2974 15.936C13.4747 16.356 13.5634 16.8133 13.5634 17.308ZM12.5554 17.308C12.5554 16.944 12.4947 16.6033 12.3734 16.286C12.2614 15.9593 12.098 15.6793 11.8834 15.446C11.6687 15.2033 11.4074 15.012 11.0994 14.872C10.7914 14.732 10.446 14.662 10.0634 14.662C9.68071 14.662 9.33537 14.732 9.02738 14.872C8.72871 15.012 8.47204 15.2033 8.25737 15.446C8.04271 15.6793 7.87471 15.9593 7.75338 16.286C7.64138 16.6033 7.58537 16.944 7.58537 17.308C7.58537 17.672 7.64138 18.0173 7.75338 18.344C7.87471 18.6613 8.04271 18.9413 8.25737 19.184C8.47204 19.4173 8.72871 19.604 9.02738 19.744C9.33537 19.8747 9.68071 19.94 10.0634 19.94C10.446 19.94 10.7914 19.8747 11.0994 19.744C11.4074 19.604 11.6687 19.4173 11.8834 19.184C12.098 18.9413 12.2614 18.6613 12.3734 18.344C12.4947 18.0173 12.5554 17.672 12.5554 17.308Z" fill="black"/>
<path d="M15.738 14.032L17.32 19.352H17.348L19.112 14.032H20.036L21.828 19.352H21.856L23.424 14.032H24.432L22.36 20.584H21.324L19.574 15.278H19.546L17.824 20.584H16.788L14.716 14.032H15.738Z" fill="black"/>
<path d="M31.0553 16.804C31.0273 16.188 30.8266 15.6793 30.4533 15.278C30.0893 14.8673 29.5666 14.662 28.8853 14.662C28.5679 14.662 28.2739 14.7227 28.0033 14.844C27.7326 14.956 27.4946 15.1147 27.2893 15.32C27.0839 15.516 26.9206 15.7447 26.7993 16.006C26.6779 16.258 26.6079 16.524 26.5893 16.804H31.0553ZM32.0213 17.112C32.0213 17.1773 32.0213 17.2473 32.0213 17.322C32.0213 17.3967 32.0166 17.476 32.0073 17.56H26.5753C26.5846 17.8867 26.6499 18.1947 26.7713 18.484C26.8926 18.7733 27.0606 19.0253 27.2753 19.24C27.4899 19.4547 27.7419 19.6273 28.0313 19.758C28.3206 19.8793 28.6333 19.94 28.9693 19.94C29.4639 19.94 29.8886 19.828 30.2433 19.604C30.6073 19.3707 30.8826 19.1047 31.0693 18.806L31.7833 19.366C31.3913 19.8607 30.9573 20.2153 30.4813 20.43C30.0146 20.6447 29.5106 20.752 28.9693 20.752C28.4839 20.752 28.0313 20.668 27.6113 20.5C27.2006 20.3227 26.8459 20.08 26.5473 19.772C26.2486 19.464 26.0106 19.1 25.8333 18.68C25.6653 18.26 25.5813 17.8027 25.5813 17.308C25.5813 16.8133 25.6653 16.356 25.8333 15.936C26.0013 15.516 26.2346 15.152 26.5333 14.844C26.8319 14.536 27.1819 14.298 27.5833 14.13C27.9846 13.9527 28.4186 13.864 28.8853 13.864C29.3986 13.864 29.8513 13.9527 30.2433 14.13C30.6353 14.298 30.9619 14.5313 31.2233 14.83C31.4846 15.1193 31.6806 15.46 31.8113 15.852C31.9513 16.244 32.0213 16.664 32.0213 17.112Z" fill="black"/>
<path d="M34.069 15.474C34.069 15.2967 34.0643 15.068 34.055 14.788C34.0457 14.508 34.0317 14.256 34.013 14.032H34.923C34.9417 14.2093 34.9557 14.4053 34.965 14.62C34.9743 14.8347 34.979 15.012 34.979 15.152H35.007C35.1937 14.7693 35.4737 14.4613 35.847 14.228C36.2203 13.9853 36.6403 13.864 37.107 13.864C37.2283 13.864 37.3357 13.8687 37.429 13.878C37.5317 13.8873 37.6343 13.906 37.737 13.934L37.611 14.83C37.555 14.8113 37.4617 14.7927 37.331 14.774C37.2003 14.7553 37.0697 14.746 36.939 14.746C36.687 14.746 36.4443 14.7927 36.211 14.886C35.9777 14.9793 35.7723 15.1287 35.595 15.334C35.427 15.53 35.287 15.7867 35.175 16.104C35.0723 16.412 35.021 16.7853 35.021 17.224V20.584H34.069V15.474Z" fill="black"/>
<path d="M43.8658 16.804C43.8378 16.188 43.6372 15.6793 43.2638 15.278C42.8998 14.8673 42.3772 14.662 41.6958 14.662C41.3785 14.662 41.0845 14.7227 40.8138 14.844C40.5432 14.956 40.3052 15.1147 40.0998 15.32C39.8945 15.516 39.7312 15.7447 39.6098 16.006C39.4885 16.258 39.4185 16.524 39.3998 16.804H43.8658ZM44.8318 17.112C44.8318 17.1773 44.8318 17.2473 44.8318 17.322C44.8318 17.3967 44.8272 17.476 44.8178 17.56H39.3858C39.3952 17.8867 39.4605 18.1947 39.5818 18.484C39.7032 18.7733 39.8712 19.0253 40.0858 19.24C40.3005 19.4547 40.5525 19.6273 40.8418 19.758C41.1312 19.8793 41.4438 19.94 41.7798 19.94C42.2745 19.94 42.6992 19.828 43.0538 19.604C43.4178 19.3707 43.6932 19.1047 43.8798 18.806L44.5938 19.366C44.2018 19.8607 43.7678 20.2153 43.2918 20.43C42.8252 20.6447 42.3212 20.752 41.7798 20.752C41.2945 20.752 40.8418 20.668 40.4218 20.5C40.0112 20.3227 39.6565 20.08 39.3578 19.772C39.0592 19.464 38.8212 19.1 38.6438 18.68C38.4758 18.26 38.3918 17.8027 38.3918 17.308C38.3918 16.8133 38.4758 16.356 38.6438 15.936C38.8118 15.516 39.0452 15.152 39.3438 14.844C39.6425 14.536 39.9925 14.298 40.3938 14.13C40.7952 13.9527 41.2292 13.864 41.6958 13.864C42.2092 13.864 42.6618 13.9527 43.0538 14.13C43.4458 14.298 43.7725 14.5313 44.0338 14.83C44.2952 15.1193 44.4912 15.46 44.6218 15.852C44.7618 16.244 44.8318 16.664 44.8318 17.112Z" fill="black"/>
<path d="M52.2695 19.478C51.9895 19.898 51.6255 20.2153 51.1775 20.43C50.7295 20.6447 50.2675 20.752 49.7915 20.752C49.2782 20.752 48.8115 20.6633 48.3915 20.486C47.9809 20.3087 47.6262 20.066 47.3275 19.758C47.0382 19.45 46.8095 19.086 46.6415 18.666C46.4829 18.246 46.4035 17.7933 46.4035 17.308C46.4035 16.8227 46.4829 16.37 46.6415 15.95C46.8095 15.53 47.0382 15.166 47.3275 14.858C47.6262 14.55 47.9809 14.3073 48.3915 14.13C48.8115 13.9527 49.2782 13.864 49.7915 13.864C50.2675 13.864 50.7295 13.976 51.1775 14.2C51.6255 14.4147 51.9895 14.7367 52.2695 15.166H52.2975V10H53.2495V20.584H52.2975V19.478H52.2695ZM47.4115 17.308C47.4115 17.672 47.4675 18.0173 47.5795 18.344C47.6915 18.6613 47.8502 18.9413 48.0555 19.184C48.2702 19.4173 48.5315 19.604 48.8395 19.744C49.1475 19.8747 49.4975 19.94 49.8895 19.94C50.2535 19.94 50.5896 19.8747 50.8975 19.744C51.2055 19.604 51.4715 19.4173 51.6955 19.184C51.9195 18.9507 52.0922 18.6753 52.2135 18.358C52.3442 18.0313 52.4095 17.6813 52.4095 17.308C52.4095 16.9347 52.3442 16.5893 52.2135 16.272C52.0922 15.9453 51.9195 15.6653 51.6955 15.432C51.4715 15.1893 51.2055 15.0027 50.8975 14.872C50.5896 14.732 50.2535 14.662 49.8895 14.662C49.4975 14.662 49.1475 14.732 48.8395 14.872C48.5315 15.012 48.2702 15.2033 48.0555 15.446C47.8502 15.6793 47.6915 15.9593 47.5795 16.286C47.4675 16.6033 47.4115 16.944 47.4115 17.308Z" fill="black"/>
<path d="M60.2736 19.478V20.584H59.3216V10H60.2736V15.166H60.3016C60.5816 14.7367 60.9456 14.4147 61.3936 14.2C61.8416 13.976 62.3036 13.864 62.7796 13.864C63.2929 13.864 63.7549 13.9527 64.1656 14.13C64.5856 14.3073 64.9403 14.55 65.2296 14.858C65.5283 15.166 65.7569 15.53 65.9156 15.95C66.0836 16.37 66.1676 16.8227 66.1676 17.308C66.1676 17.7933 66.0836 18.246 65.9156 18.666C65.7569 19.086 65.5283 19.45 65.2296 19.758C64.9403 20.066 64.5856 20.3087 64.1656 20.486C63.7549 20.6633 63.2929 20.752 62.7796 20.752C62.3036 20.752 61.8416 20.6447 61.3936 20.43C60.9456 20.2153 60.5816 19.898 60.3016 19.478H60.2736ZM65.1596 17.308C65.1596 16.944 65.1036 16.6033 64.9916 16.286C64.8796 15.9593 64.7163 15.6793 64.5016 15.446C64.2963 15.2033 64.0396 15.012 63.7316 14.872C63.4236 14.732 63.0736 14.662 62.6816 14.662C62.3176 14.662 61.9816 14.732 61.6736 14.872C61.3656 15.0027 61.0996 15.1893 60.8756 15.432C60.6516 15.6653 60.4743 15.9453 60.3436 16.272C60.2223 16.5893 60.1616 16.9347 60.1616 17.308C60.1616 17.6813 60.2223 18.0313 60.3436 18.358C60.4743 18.6753 60.6516 18.9507 60.8756 19.184C61.0996 19.4173 61.3656 19.604 61.6736 19.744C61.9816 19.8747 62.3176 19.94 62.6816 19.94C63.0736 19.94 63.4236 19.8747 63.7316 19.744C64.0396 19.604 64.2963 19.4173 64.5016 19.184C64.7163 18.9413 64.8796 18.6613 64.9916 18.344C65.1036 18.0173 65.1596 17.672 65.1596 17.308Z" fill="black"/>
<path d="M70.4617 19.562H70.4897L72.5197 14.032H73.5557L70.2937 22.278C70.0977 22.782 69.8457 23.1833 69.5377 23.482C69.239 23.79 68.805 23.944 68.2357 23.944C67.9463 23.944 67.6617 23.916 67.3817 23.86L67.4797 22.992C67.7037 23.0667 67.937 23.104 68.1797 23.104C68.5063 23.104 68.763 23.0013 68.9497 22.796C69.1363 22.6 69.2997 22.3153 69.4397 21.942L69.9717 20.57L67.1717 14.032H68.2357L70.4617 19.562Z" fill="black"/>
<defs>
<clipPath id="clip0_16_204">
<rect width="107" height="29" fill="white" transform="translate(83.684)"/>
</clipPath>
</defs>
</svg>
